<svg width="82" height="23" viewBox="0 0 82 23" fill="none" xmlns="http://www.w3.org/2000/svg">
<path d="M7.16797 11.918H2.82031V9.17578H7.16797C7.83984 9.17578 8.38672 9.06641 8.80859 8.84766C9.23047 8.62109 9.53906 8.30859 9.73438 7.91016C9.92969 7.51172 10.0273 7.0625 10.0273 6.5625C10.0273 6.05469 9.92969 5.58203 9.73438 5.14453C9.53906 4.70703 9.23047 4.35547 8.80859 4.08984C8.38672 3.82422 7.83984 3.69141 7.16797 3.69141H4.03906V18H0.523438V0.9375H7.16797C8.50391 0.9375 9.64844 1.17969 10.6016 1.66406C11.5625 2.14063 12.2969 2.80078 12.8047 3.64453C13.3125 4.48828 13.5664 5.45312 13.5664 6.53906C13.5664 7.64062 13.3125 8.59375 12.8047 9.39844C12.2969 10.2031 11.5625 10.8242 10.6016 11.2617C9.64844 11.6992 8.50391 11.918 7.16797 11.918ZM15.0781 11.7891V11.543C15.0781 10.6133 15.2109 9.75781 15.4766 8.97656C15.7422 8.1875 16.1289 7.50391 16.6367 6.92578C17.1445 6.34766 17.7695 5.89844 18.5117 5.57812C19.2539 5.25 20.1055 5.08594 21.0664 5.08594C22.0273 5.08594 22.8828 5.25 23.6328 5.57812C24.3828 5.89844 25.0117 6.34766 25.5195 6.92578C26.0352 7.50391 26.4258 8.1875 26.6914 8.97656C26.957 9.75781 27.0898 10.6133 27.0898 11.543V11.7891C27.0898 12.7109 26.957 13.5664 26.6914 14.3555C26.4258 15.1367 26.0352 15.8203 25.5195 16.4062C25.0117 16.9844 24.3867 17.4336 23.6445 17.7539C22.9023 18.0742 22.0508 18.2344 21.0898 18.2344C20.1289 18.2344 19.2734 18.0742 18.5234 17.7539C17.7812 17.4336 17.1523 16.9844 16.6367 16.4062C16.1289 15.8203 15.7422 15.1367 15.4766 14.3555C15.2109 13.5664 15.0781 12.7109 15.0781 11.7891ZM18.4531 11.543V11.7891C18.4531 12.3203 18.5 12.8164 18.5938 13.2773C18.6875 13.7383 18.8359 14.1445 19.0391 14.4961C19.25 14.8398 19.5234 15.1094 19.8594 15.3047C20.1953 15.5 20.6055 15.5977 21.0898 15.5977C21.5586 15.5977 21.9609 15.5 22.2969 15.3047C22.6328 15.1094 22.9023 14.8398 23.1055 14.4961C23.3086 14.1445 23.457 13.7383 23.5508 13.2773C23.6523 12.8164 23.7031 12.3203 23.7031 11.7891V11.543C23.7031 11.0273 23.6523 10.543 23.5508 10.0898C23.457 9.62891 23.3047 9.22266 23.0938 8.87109C22.8906 8.51172 22.6211 8.23047 22.2852 8.02734C21.9492 7.82422 21.543 7.72266 21.0664 7.72266C20.5898 7.72266 20.1836 7.82422 19.8477 8.02734C19.5195 8.23047 19.25 8.51172 19.0391 8.87109C18.8359 9.22266 18.6875 9.62891 18.5938 10.0898C18.5 10.543 18.4531 11.0273 18.4531 11.543ZM32.7266 0V18H29.3398V0H32.7266ZM39.0781 5.32031V18H35.6914V5.32031H39.0781ZM35.4805 2.01562C35.4805 1.52344 35.6523 1.11719 35.9961 0.796875C36.3398 0.476563 36.8008 0.316406 37.3789 0.316406C37.9492 0.316406 38.4062 0.476563 38.75 0.796875C39.1016 1.11719 39.2773 1.52344 39.2773 2.01562C39.2773 2.50781 39.1016 2.91406 38.75 3.23438C38.4062 3.55469 37.9492 3.71484 37.3789 3.71484C36.8008 3.71484 36.3398 3.55469 35.9961 3.23438C35.6523 2.91406 35.4805 2.50781 35.4805 2.01562ZM49.8945 5.32031H52.9531V17.5781C52.9531 18.7344 52.6953 19.7148 52.1797 20.5195C51.6719 21.332 50.9609 21.9453 50.0469 22.3594C49.1328 22.7812 48.0703 22.9922 46.8594 22.9922C46.3281 22.9922 45.7656 22.9219 45.1719 22.7812C44.5859 22.6406 44.0234 22.4219 43.4844 22.125C42.9531 21.8281 42.5078 21.4531 42.1484 21L43.6367 19.0078C44.0273 19.4609 44.4805 19.8125 44.9961 20.0625C45.5117 20.3203 46.082 20.4492 46.707 20.4492C47.3164 20.4492 47.832 20.3359 48.2539 20.1094C48.6758 19.8906 49 19.5664 49.2266 19.1367C49.4531 18.7148 49.5664 18.2031 49.5664 17.6016V8.25L49.8945 5.32031ZM41.3633 11.8125V11.5664C41.3633 10.5977 41.4805 9.71875 41.7148 8.92969C41.957 8.13281 42.2969 7.44922 42.7344 6.87891C43.1797 6.30859 43.7188 5.86719 44.3516 5.55469C44.9844 5.24219 45.6992 5.08594 46.4961 5.08594C47.3398 5.08594 48.0469 5.24219 48.6172 5.55469C49.1875 5.86719 49.6562 6.3125 50.0234 6.89062C50.3906 7.46094 50.6758 8.13672 50.8789 8.91797C51.0898 9.69141 51.2539 10.5391 51.3711 11.4609V12C51.2539 12.8828 51.0781 13.7031 50.8438 14.4609C50.6094 15.2188 50.3008 15.8828 49.918 16.4531C49.5352 17.0156 49.0586 17.4531 48.4883 17.7656C47.9258 18.0781 47.2539 18.2344 46.4727 18.2344C45.6914 18.2344 44.9844 18.0742 44.3516 17.7539C43.7266 17.4336 43.1914 16.9844 42.7461 16.4062C42.3008 15.8281 41.957 15.1484 41.7148 14.3672C41.4805 13.5859 41.3633 12.7344 41.3633 11.8125ZM44.7383 11.5664V11.8125C44.7383 12.3359 44.7891 12.8242 44.8906 13.2773C44.9922 13.7305 45.1484 14.1328 45.3594 14.4844C45.5781 14.8281 45.8477 15.0977 46.168 15.293C46.4961 15.4805 46.8828 15.5742 47.3281 15.5742C47.9453 15.5742 48.4492 15.4453 48.8398 15.1875C49.2305 14.9219 49.5234 14.5586 49.7188 14.0977C49.9141 13.6367 50.0273 13.1055 50.0586 12.5039V10.9688C50.043 10.4766 49.9766 10.0352 49.8594 9.64453C49.7422 9.24609 49.5781 8.90625 49.3672 8.625C49.1562 8.34375 48.8828 8.125 48.5469 7.96875C48.2109 7.8125 47.8125 7.73438 47.3516 7.73438C46.9062 7.73438 46.5195 7.83594 46.1914 8.03906C45.8711 8.23438 45.6016 8.50391 45.3828 8.84766C45.1719 9.19141 45.0117 9.59766 44.9023 10.0664C44.793 10.5273 44.7383 11.0273 44.7383 11.5664ZM59.1406 0V18H55.7539V0H59.1406ZM61.3906 11.7891V11.543C61.3906 10.6133 61.5234 9.75781 61.7891 8.97656C62.0547 8.1875 62.4414 7.50391 62.9492 6.92578C63.457 6.34766 64.082 5.89844 64.8242 5.57812C65.5664 5.25 66.418 5.08594 67.3789 5.08594C68.3398 5.08594 69.1953 5.25 69.9453 5.57812C70.6953 5.89844 71.3242 6.34766 71.832 6.92578C72.3477 7.50391 72.7383 8.1875 73.0039 8.97656C73.2695 9.75781 73.4023 10.6133 73.4023 11.543V11.7891C73.4023 12.7109 73.2695 13.5664 73.0039 14.3555C72.7383 15.1367 72.3477 15.8203 71.832 16.4062C71.3242 16.9844 70.6992 17.4336 69.957 17.7539C69.2148 18.0742 68.3633 18.2344 67.4023 18.2344C66.4414 18.2344 65.5859 18.0742 64.8359 17.7539C64.0938 17.4336 63.4648 16.9844 62.9492 16.4062C62.4414 15.8203 62.0547 15.1367 61.7891 14.3555C61.5234 13.5664 61.3906 12.7109 61.3906 11.7891ZM64.7656 11.543V11.7891C64.7656 12.3203 64.8125 12.8164 64.9062 13.2773C65 13.7383 65.1484 14.1445 65.3516 14.4961C65.5625 14.8398 65.8359 15.1094 66.1719 15.3047C66.5078 15.5 66.918 15.5977 67.4023 15.5977C67.8711 15.5977 68.2734 15.5 68.6094 15.3047C68.9453 15.1094 69.2148 14.8398 69.418 14.4961C69.6211 14.1445 69.7695 13.7383 69.8633 13.2773C69.9648 12.8164 70.0156 12.3203 70.0156 11.7891V11.543C70.0156 11.0273 69.9648 10.543 69.8633 10.0898C69.7695 9.62891 69.6172 9.22266 69.4062 8.87109C69.2031 8.51172 68.9336 8.23047 68.5977 8.02734C68.2617 7.82422 67.8555 7.72266 67.3789 7.72266C66.9023 7.72266 66.4961 7.82422 66.1602 8.02734C65.832 8.23047 65.5625 8.51172 65.3516 8.87109C65.1484 9.22266 65 9.62891 64.9062 10.0898C64.8125 10.543 64.7656 11.0273 64.7656 11.543ZM81.6875 5.32031V7.71094H74.3047V5.32031H81.6875ZM76.1328 2.19141H79.5078V14.1797C79.5078 14.5469 79.5547 14.8281 79.6484 15.0234C79.75 15.2188 79.8984 15.3555 80.0938 15.4336C80.2891 15.5039 80.5352 15.5391 80.832 15.5391C81.043 15.5391 81.2305 15.5312 81.3945 15.5156C81.5664 15.4922 81.7109 15.4688 81.8281 15.4453L81.8398 17.9297C81.5508 18.0234 81.2383 18.0977 80.9023 18.1523C80.5664 18.207 80.1953 18.2344 79.7891 18.2344C79.0469 18.2344 78.3984 18.1133 77.8438 17.8711C77.2969 17.6211 76.875 17.2227 76.5781 16.6758C76.2812 16.1289 76.1328 15.4102 76.1328 14.5195V2.19141Z" fill="white"/>
</svg>
